Coordinates
version=1
nRows=4
nColumns=107
inDegrees=yes

Units are S.I. units (second, meters, Newtons, ...)
If the header above contains a line with 'inDegrees', this indicates whether rotational values are in degrees (yes) or radians (no).

endheader
time	sternoclavicular_r2	sternoclavicular_r3	unrotscap_r3	unrotscap_r2	acromioclavicular_r2	acromioclavicular_r3	acromioclavicular_r1	unrothum_r1	unrothum_r3	unrothum_r2	elv_angle	shoulder_elv	shoulder1_r2	shoulder_rot	elbow_flexion	pro_sup	deviation	flexion	proximal_distal_r1	proximal_distal_r3	cmc_flexion	cmc_abduction	mp_flexion	ip_flexion	mcp2_flexion	mcp2_abduction	pm2_flexion	md2_flexion	mcp3_flexion	mcp3_abduction	pm3_flexion	md3_flexion	mcp4_flexion	mcp4_abduction	pm4_flexion	md4_flexion	mcp5_flexion	mcp5_abduction	pm5_flexion	md5_flexion	bicpt_tx	bicpt_ty	bicpt_tz	bicpt2_tx	bicpt2_ty	bicpt2_tz	ptpt_tx	ptpt_ty	ptpt_tz	FCUpt_tx	FCUpt_ty	FCUpt_tz	EDCpt_tx	EDCpt_ty	EDCpt_tz	APLpt_tx	APLpt_ty	APLpt_tz	FPLpt_tx	FPLpt_ty	FPLpt_tz	FPLpt2_tx	FPLpt2_ty	FPLpt2_tz	PEC1pt2_tx	PEC1pt2_ty	PEC1pt2_tz	PEC1pt3_tx	PEC1pt3_ty	PEC1pt3_tz	PEC2pt2_tx	PEC2pt2_ty	PEC2pt2_tz	PEC2pt3_tx	PEC2pt3_ty	PEC2pt3_tz	PEC3pt2_tx	PEC3pt2_ty	PEC3pt2_tz	PEC3pt3_tx	PEC3pt3_ty	PEC3pt3_tz	DELT2pt2a_tx	DELT2pt2a_ty	DELT2pt2a_tz	DELT2pt2_tx	DELT2pt2_ty	DELT2pt2_tz	LAT1pt2_tx	LAT1pt2_ty	LAT1pt2_tz	LAT1pt3_tx	LAT1pt3_ty	LAT1pt3_tz	LAT2pt2_tx	LAT2pt2_ty	LAT2pt2_tz	LAT2pt3_tx	LAT2pt3_ty	LAT2pt3_tz	LAT3pt2_tx	LAT3pt2_ty	LAT3pt2_tz	LAT3pt3_tx	LAT3pt3_ty	LAT3pt3_tz
      0.00000000	     -0.31055984	      0.13153849	     -0.13153849	      0.31055984	     -0.06288205	      0.50819061	      0.22842818	     -0.22842818	     -0.50819061	      0.06288205	    102.28971805	     73.52780305	     -1.78529237	    -40.49836020	     31.98471078	     86.28349836	      0.36145632	     -0.34372718	      0.38360875	     -0.17186359	     41.92492362	    -15.71548866	     19.01858343	      2.08145085	     87.04044213	      4.41105297	     83.43835879	     83.15920254	     83.33955239	     -2.48818247	     85.58222395	     73.61578076	     69.05954468	    -12.34877637	    106.04586965	     37.75018455	     48.98338219	    -13.63955170	    103.14717417	      5.21426166	      0.00095795	     -0.03126594	     -0.00489049	      0.01421051	     -0.01888880	     -0.00102744	      0.00117462	     -0.06902242	     -0.00700060	      0.01277058	     -0.18222812	      0.00009164	     -0.01035400	      0.00359358	     -0.00076634	      0.00025274	      0.00010110	      0.00050548	      0.00032351	      0.00097052	      0.00054592	     -0.00000751	     -0.00007162	     -0.00008595	      0.00241008	      0.00845570	      0.00588223	     -0.00788382	      0.01903555	     -0.01805518	      0.00241008	      0.00845570	      0.00588223	      0.00053103	      0.01764669	     -0.00927268	      0.00384676	      0.00470211	      0.01571501	      0.00000000	      0.00722687	      0.00000000	     -0.00690345	     -0.03190292	     -0.00595561	      0.02279483	     -0.00112903	     -0.01321055	     -0.00085783	      0.01437878	     -0.00588223	      0.00236923	      0.02075120	     -0.01715650	     -0.00575968	      0.01245889	     -0.00526950	     -0.01200955	      0.02630664	     -0.02945199	     -0.02254855	      0.01392945	     -0.00706684	     -0.01495067	      0.03039152	     -0.03680478
      0.03333333	     -0.31068380	      0.13159099	     -0.13159099	      0.31068380	     -0.06290715	      0.50839345	      0.22851936	     -0.22851936	     -0.50839345	      0.06290715	    102.14443482	     73.55715015	     -1.78275670	    -40.10313297	     32.11402463	     86.11866324	      0.37218426	     -0.32866880	      0.39172638	     -0.16433440	     41.90144306	    -15.43703136	     18.76886609	      1.51474346	     87.23769252	      4.84211353	     83.73616507	     81.75021630	     85.24644908	     -3.26906964	     85.72357482	     67.33531504	     69.60929257	    -12.30192608	    106.68495906	     38.73755882	     49.08559265	    -13.66934201	    104.25145895	      5.26907320	      0.00096223	     -0.03128076	     -0.00489287	      0.01422764	     -0.01892393	     -0.00105572	      0.00118680	     -0.06901455	     -0.00698732	      0.01275163	     -0.18223372	      0.00008707	     -0.01033422	      0.00358453	     -0.00076103	      0.00024581	      0.00009832	      0.00049162	      0.00031464	      0.00094391	      0.00053095	     -0.00000755	     -0.00007213	     -0.00008656	      0.00241104	      0.00845908	      0.00588458	     -0.00788697	      0.01904314	     -0.01806238	      0.00241104	      0.00845908	      0.00588458	      0.00053125	      0.01765373	     -0.00927638	      0.00384790	      0.00470399	      0.01571791	      0.00000000	      0.00723268	      0.00000000	     -0.00690620	     -0.03191566	     -0.00596043	      0.02267416	     -0.00111461	     -0.01297619	     -0.00085817	      0.01438452	     -0.00588458	      0.00237018	      0.02075948	     -0.01716335	     -0.00576198	      0.01246386	     -0.00527160	     -0.01201434	      0.02631714	     -0.02946375	     -0.02255755	      0.01393501	     -0.00706967	     -0.01495663	      0.03040365	     -0.03681947
      0.06666667	     -0.31033586	      0.13144362	     -0.13144362	      0.31033586	     -0.06283670	      0.50782410	      0.22826344	     -0.22826344	     -0.50782410	      0.06283670	    102.05288215	     73.47477321	     -1.78115880	    -40.13647441	     32.37566908	     86.14284763	      0.37304897	     -0.32938374	      0.39237201	     -0.16469187	     41.86972278	    -15.42535708	     18.75370310	      1.51179718	     87.25283443	      4.86149196	     83.74560671	     81.74923921	     85.35454723	     -3.33274618	     85.71700447	     67.30708927	     69.64297334	    -12.29662259	    106.71453124	     38.74329682	     49.10297952	    -13.66645045	    104.29185957	      5.28192507	      0.00097089	     -0.03131075	     -0.00489770	      0.01422512	     -0.01899501	     -0.00105156	      0.00118502	     -0.06901570	     -0.00698927	      0.01275441	     -0.18223289	      0.00008774	     -0.01033712	      0.00358586	     -0.00076181	      0.00024615	      0.00009846	      0.00049229	      0.00031507	      0.00094521	      0.00053168	     -0.00000761	     -0.00007281	     -0.00008738	      0.00240834	      0.00844961	      0.00587799	     -0.00787814	      0.01902182	     -0.01804215	      0.00240834	      0.00844961	      0.00587799	      0.00053065	      0.01763396	     -0.00926599	      0.00384470	      0.00469872	      0.01570976	      0.00000000	      0.00721639	      0.00000000	     -0.00689847	     -0.03187991	     -0.00594689	      0.02268435	     -0.00111583	     -0.01299595	     -0.00085721	      0.01436841	     -0.00587799	      0.00236752	      0.02073623	     -0.01714413	     -0.00575553	      0.01244990	     -0.00526570	     -0.01200089	      0.02628766	     -0.02943075	     -0.02253228	      0.01391940	     -0.00706175	     -0.01493988	      0.03036960	     -0.03677824
      0.10000000	     -0.30991789	      0.13126659	     -0.13126659	      0.30991789	     -0.06275207	      0.50714014	      0.22795600	     -0.22795600	     -0.50714014	      0.06275207	    102.53580532	     73.37581448	     -1.78958740	    -41.47366003	     31.95123200	     85.85258598	      0.35767827	     -0.38138502	      0.38070544	     -0.19069251	     41.85822741	    -14.45036586	     18.33355901	      1.74848546	     87.78116137	      5.12560140	     84.05947874	     80.40872061	     87.05190394	     -4.72960186	     85.74741258	     62.31352980	     69.97882771	    -12.17230802	    109.59354496	     36.04218585	     50.68254129	    -13.61005087	    115.03646555	      5.63847461	      0.00095685	     -0.03126210	     -0.00488987	      0.01425512	     -0.01887971	     -0.00110127	      0.00120646	     -0.06900184	     -0.00696589	      0.01272107	     -0.18224272	      0.00007974	     -0.01030229	      0.00356993	     -0.00075249	      0.00026840	      0.00010736	      0.00053680	      0.00034355	      0.00103066	      0.00057974	     -0.00000764	     -0.00007306	     -0.00008767	      0.00240510	      0.00843823	      0.00587007	     -0.00786752	      0.01899620	     -0.01801785	      0.00240510	      0.00843823	      0.00587007	      0.00052994	      0.01761021	     -0.00925351	      0.00384085	      0.00469239	      0.01569994	      0.00000000	      0.00719685	      0.00000000	     -0.00688918	     -0.03183698	     -0.00593066	      0.02308388	     -0.00116473	     -0.01379428	     -0.00085605	      0.01434906	     -0.00587007	      0.00236433	      0.02070830	     -0.01712104	     -0.00574778	      0.01243313	     -0.00525860	     -0.01198473	      0.02625226	     -0.02939111	     -0.02250194	      0.01390065	     -0.00705224	     -0.01491976	      0.03032870	     -0.03672870
